<?xml version="1.0" encoding="UTF-8"?>
<svg xmlns="http://www.w3.org/2000/svg" width="64" height="64" viewBox="0 0 24 24" fill="none" stroke="currentColor" stroke-width="2" stroke-linecap="round" stroke-linejoin="round">
  <defs>
    <linearGradient id="g" x1="0%" y1="0%" x2="100%" y2="100%">
      <stop offset="0%" stop-color="#0ea5e9"/>
      <stop offset="100%" stop-color="#22c55e"/>
    </linearGradient>
  </defs>
  <rect width="24" height="24" rx="4" ry="4" fill="url(#g)"/>
  <g transform="translate(4 4)" stroke="#ffffff">
    <path d="M15.5 11.5l-2 2a2 2 0 0 1-2.5.3c-.9-.6-2.1-1.5-3.4-2.8S4 8.1 3.4 7.2A2 2 0 0 1 3.7 4.7l2-2a1 1 0 0 1 1.4 0l1.4 1.4a1 1 0 0 1 0 1.4L7.8 6.2c.7.8 1.4 1.5 2 2.2.7.6 1.4 1.3 2.2 2l.7-.7a1 1 0 0 1 1.4 0l1.4 1.4a1 1 0 0 1 0 1.4z"/>
  </g>
</svg>
